HIERARCHY
ROOT hip
{
  OFFSET 0 0 0
  CHANNELS 6 Xposition Yposition Zposition Zrotation Yrotation Xrotation
  JOINT abdomen
  {
    OFFSET 0 20.6881 -0.73152
    CHANNELS 3 Zrotation Xrotation Yrotation
    JOINT chest
    {
      OFFSET 0 11.7043 -0.48768
      CHANNELS 3 Zrotation Xrotation Yrotation
      JOINT neck
      {
        OFFSET 0 22.1894 -2.19456
        CHANNELS 3 Zrotation Xrotation Yrotation
        JOINT head
        {
          OFFSET -0.24384 7.07133 1.2192
          CHANNELS 3 Zrotation Xrotation Yrotation
          JOINT leftEye
          {
            OFFSET 4.14528 8.04674 8.04672
            CHANNELS 3 Zrotation Xrotation Yrotation
            End Site
            {
              OFFSET 1 0 0
            }
          }
          JOINT rightEye
          {
            OFFSET -3.6576 8.04674 8.04672
            CHANNELS 3 Zrotation Xrotation Yrotation
            End Site
            {
              OFFSET 1 0 0
            }
          }
        }
      }
      JOINT rCollar
      {
        OFFSET -2.68224 19.2634 -4.8768
        CHANNELS 3 Zrotation Xrotation Yrotation
        JOINT rShldr
        {
          OFFSET -8.77824 -1.95073 1.46304
          CHANNELS 3 Zrotation Xrotation Yrotation
          JOINT rForeArm
          {
            OFFSET -28.1742 -1.7115 0.48768
            CHANNELS 3 Zrotation Xrotation Yrotation
            JOINT rHand
            {
              OFFSET -22.5879 0.773209 7.07136
              CHANNELS 3 Zrotation Xrotation Yrotation
              JOINT rThumb1
              {
                OFFSET -1.2192 -0.487915 3.41376
                CHANNELS 3 Zrotation Xrotation Yrotation
                JOINT rThumb2
                {
                  OFFSET -3.37035 -0.52449 3.41376
                  CHANNELS 3 Zrotation Xrotation Yrotation
                  End Site
                  {
                    OFFSET -1.78271 -1.18214 1.43049
                  }
                }
              }
              JOINT rIndex1
              {
                OFFSET -7.75947 0.938293 5.60832
                CHANNELS 3 Zrotation Xrotation Yrotation
                JOINT rIndex2
                {
                  OFFSET -2.54057 -0.884171 1.56538
                  CHANNELS 3 Zrotation Xrotation Yrotation
                  End Site
                  {
                    OFFSET -1.62519 -0.234802 1.16502
                  }
                }
              }
              JOINT rMid1
              {
                OFFSET -8.24714 1.18213 3.41376
                CHANNELS 3 Zrotation Xrotation Yrotation
                JOINT rMid2
                {
                  OFFSET -3.10165 -0.590103 1.0647
                  CHANNELS 3 Zrotation Xrotation Yrotation
                  End Site
                  {
                    OFFSET -2.48547 -0.328903 0.83742
                  }
                }
              }
              JOINT rRing1
              {
                OFFSET -8.82822 0.546677 1.51678
                CHANNELS 3 Zrotation Xrotation Yrotation
                JOINT rRing2
                {
                  OFFSET -2.60934 -0.819778 -0.0198488
                  CHANNELS 3 Zrotation Xrotation Yrotation
                  End Site
                  {
                    OFFSET -2.33842 -0.294052 0.168128
                  }
                }
              }
              JOINT rPinky1
              {
                OFFSET -8.27202 -0.0477905 -0.4584
                CHANNELS 3 Zrotation Xrotation Yrotation
                JOINT rPinky2
                {
                  OFFSET -1.82734 -0.647385 -0.700984
                  CHANNELS 3 Zrotation Xrotation Yrotation
                  End Site
                  {
                    OFFSET -1.69225 -0.51767 -0.607171
                  }
                }
              }
            }
          }
        }
      }
      JOINT lCollar
      {
        OFFSET 2.68224 19.2634 -4.8768
        CHANNELS 3 Zrotation Xrotation Yrotation
        JOINT lShldr
        {
          OFFSET 8.77824 -1.95073 1.46304
          CHANNELS 3 Zrotation Xrotation Yrotation
          JOINT lForeArm
          {
            OFFSET 28.1742 -1.7115 0.48768
            CHANNELS 3 Zrotation Xrotation Yrotation
            JOINT lHand
            {
              OFFSET 22.5879 0.773209 7.07136
              CHANNELS 3 Zrotation Xrotation Yrotation
              JOINT lThumb1
              {
                OFFSET 1.2192 -0.487915 3.41376
                CHANNELS 3 Zrotation Xrotation Yrotation
                JOINT lThumb2
                {
                  OFFSET 3.37035 -0.52449 3.41376
                  CHANNELS 3 Zrotation Xrotation Yrotation
                  End Site
                  {
                    OFFSET 1.78271 -1.18214 1.43049
                  }
                }
              }
              JOINT lIndex1
              {
                OFFSET 7.75947 0.938293 5.60832
                CHANNELS 3 Zrotation Xrotation Yrotation
                JOINT lIndex2
                {
                  OFFSET 2.54057 -0.884171 1.56538
                  CHANNELS 3 Zrotation Xrotation Yrotation
                  End Site
                  {
                    OFFSET 1.62519 -0.234802 1.16502
                  }
                }
              }
              JOINT lMid1
              {
                OFFSET 8.24714 1.18213 3.41376
                CHANNELS 3 Zrotation Xrotation Yrotation
                JOINT lMid2
                {
                  OFFSET 3.10165 -0.590103 1.0647
                  CHANNELS 3 Zrotation Xrotation Yrotation
                  End Site
                  {
                    OFFSET 2.48547 -0.328903 0.83742
                  }
                }
              }
              JOINT lRing1
              {
                OFFSET 8.82822 0.546677 1.51678
                CHANNELS 3 Zrotation Xrotation Yrotation
                JOINT lRing2
                {
                  OFFSET 2.60934 -0.819778 -0.0198488
                  CHANNELS 3 Zrotation Xrotation Yrotation
                  End Site
                  {
                    OFFSET 2.33842 -0.294052 0.168128
                  }
                }
              }
              JOINT lPinky1
              {
                OFFSET 8.27202 -0.0477905 -0.4584
                CHANNELS 3 Zrotation Xrotation Yrotation
                JOINT lPinky2
                {
                  OFFSET 1.82734 -0.647385 -0.700984
                  CHANNELS 3 Zrotation Xrotation Yrotation
                  End Site
                  {
                    OFFSET 1.69225 -0.51767 -0.607171
                  }
                }
              }
            }
          }
        }
      }
    }
  }
  JOINT rButtock
  {
    OFFSET -8.77824 4.35084 1.2192
    CHANNELS 3 Zrotation Xrotation Yrotation
    JOINT rThigh
    {
      OFFSET 0 -1.70687 -2.19456
      CHANNELS 3 Zrotation Xrotation Yrotation
      JOINT rShin
      {
        OFFSET 0 -36.8199 0.73152
        CHANNELS 3 Zrotation Xrotation Yrotation
        JOINT rFoot
        {
          OFFSET 0.73152 -45.1104 -5.12064
          CHANNELS 3 Zrotation Xrotation Yrotation
          End Site
          {
            OFFSET -1.1221 -3.69964 12.103
          }
        }
      }
    }
  }
  JOINT lButtock
  {
    OFFSET 8.77824 4.35084 1.2192
    CHANNELS 3 Zrotation Xrotation Yrotation
    JOINT lThigh
    {
      OFFSET 0 -1.70687 -2.19456
      CHANNELS 3 Zrotation Xrotation Yrotation
      JOINT lShin
      {
        OFFSET 0 -36.8199 0.73152
        CHANNELS 3 Zrotation Xrotation Yrotation
        JOINT lFoot
        {
          OFFSET -0.73152 -45.1104 -5.12064
          CHANNELS 3 Zrotation Xrotation Yrotation
          End Site
          {
            OFFSET 1.1221 -3.69964 12.103
          }
        }
      }
    }
  }
}
MOTION
Frames:	4
Frame Time:	0.00833333
-86.2653 69.6933 -8.0769 -298.772 84.957 -280.229 -3.52251 28.2606 -5.96918 5.74633 -6.54123 -1.35007 -1.1579 -12.8473 3.52618 -7.56318 -5.15244 7.42646 -0.0 0.0 0.0 -0.0 0.0 0.0 -1.78002e-13 1.49346e-12 4.91992e-15 71.8704 27.6984 2.23957 -19.7667 -12.7213 38.1167 -0.193546 -12.4369 -1.77615 2.95607e-09 3.83082e-09 -7.41874e-10 5.12753e-09 6.61143e-09 -1.25542e-09 2.95607e-09 3.83081e-09 -7.41887e-10 7.73091 5.47488 0.417314 2.95607e-09 3.83082e-09 -7.41874e-10 2.90554 0.965183 0.102902 2.95608e-09 3.83081e-09 -7.41872e-10 10.2786 0.731801 0.0259123 2.95606e-09 3.83082e-09 -7.41861e-10 2.22167 -0.733487 -0.20892 -1.78232e-13 1.49348e-12 4.62174e-15 -48.1103 36.9555 -31.2028 24.2515 -19.5747 -50.4153 0.246652 -14.0017 2.00836 -5.8176e-10 -9.77327e-10 3.26798e-09 -1.05148e-09 -1.70169e-09 5.65033e-09 -5.81766e-10 -9.77334e-10 3.268e-09 -7.73091 5.47488 -0.417314 -5.81763e-10 -9.77334e-10 3.26798e-09 -2.90554 0.965183 -0.102902 -5.81765e-10 -9.77331e-10 3.26797e-09 -10.2786 0.731801 -0.0259123 -5.81756e-10 -9.77328e-10 3.26797e-09 -2.22167 -0.733487 0.20892 -2.03217e-16 0.0 -3.88251e-19 -46.138 -63.3206 -41.391 -1.20047 62.4079 1.76384 -1.59183 -7.1626 -7.78837 2.03217e-16 0.0 3.88251e-19 17.9897 -43.0999 20.1193 1.2332 63.9536 -2.1997 6.30641 -26.5814 12.1255
-85.3902 69.6142 -7.3952 -299.143 84.7215 -280.82 -3.35239 28.1864 -6.00596 5.57995 -6.56699 -1.35231 -1.21999 -12.7862 3.61198 -7.76211 -5.13645 7.62727 -0.0 0.0 0.0 -0.0 0.0 0.0 -1.94364e-13 1.82877e-12 -1.50544e-14 71.8433 28.4061 2.6692 -19.8572 -12.8325 38.3374 -0.208899 -12.9196 -1.8474 2.52977e-09 2.24153e-09 -3.18494e-10 4.38003e-09 3.86473e-09 -5.27786e-10 2.52977e-09 2.24152e-09 -3.18506e-10 7.73091 5.47488 0.417314 2.52976e-09 2.24153e-09 -3.18493e-10 2.90554 0.965183 0.102902 2.52977e-09 2.24152e-09 -3.18493e-10 10.2786 0.731801 0.0259123 2.52976e-09 2.24153e-09 -3.18483e-10 2.22167 -0.733487 -0.20892 -1.94546e-13 1.82879e-12 -1.53495e-14 -49.8697 36.241 -30.0 23.5248 -18.2526 -48.1193 0.230928 -13.5614 1.94269 2.0608e-10 -6.81972e-10 1.89511e-09 3.28405e-10 -1.1883e-09 3.28186e-09 2.06077e-10 -6.81976e-10 1.89513e-09 -7.73091 5.47488 -0.417314 2.06078e-10 -6.81977e-10 1.89511e-09 -2.90554 0.965183 -0.102902 2.06075e-10 -6.81975e-10 1.89511e-09 -10.2786 0.731801 -0.0259123 2.06083e-10 -6.81972e-10 1.8951e-09 -2.22167 -0.733487 0.20892 -2.03217e-16 0.0 -3.88251e-19 -45.0374 -63.3689 -40.1612 -1.26036 63.226 1.84201 -1.76227 -8.00583 -8.04409 2.03217e-16 0.0 3.88251e-19 18.349 -42.6644 20.0317 1.29596 64.7005 -2.26469 5.95694 -25.4819 11.8266
-84.5207 69.575 -6.72012 -300.151 84.432 -282.034 -3.26237 28.1681 -5.93323 5.34728 -6.54194 -1.33402 -1.33199 -12.815 3.67356 -7.82302 -5.04069 7.81517 -0.0 0.0 0.0 -0.0 0.0 0.0 -1.8542e-13 2.04564e-12 -5.88868e-14 71.8746 29.0507 3.18082 -19.946 -12.9417 38.5574 -0.22734 -13.464 -1.92817 1.64295e-09 -8.15014e-11 2.88751e-10 2.83129e-09 -1.48695e-10 5.13069e-10 1.64295e-09 -8.15066e-11 2.8874e-10 7.73091 5.47488 0.417314 1.64295e-09 -8.15045e-11 2.88755e-10 2.90554 0.965183 0.102902 1.64296e-09 -8.15075e-11 2.88751e-10 10.2786 0.731801 0.0259123 1.64294e-09 -8.14998e-11 2.88758e-10 2.22167 -0.733487 -0.20892 -1.85524e-13 2.04565e-12 -5.91664e-14 -51.6613 35.3557 -28.6764 22.7399 -16.9423 -45.7378 0.214875 -13.0884 1.87246 1.32503e-09 -4.45047e-10 4.94613e-11 2.28804e-09 -7.75357e-10 9.6855e-11 1.32503e-09 -4.45048e-10 4.94739e-11 -7.73091 5.47488 -0.417314 1.32503e-09 -4.45048e-10 4.94623e-11 -2.90554 0.965183 -0.102902 1.32502e-09 -4.45047e-10 4.94577e-11 -10.2786 0.731801 -0.0259123 1.32503e-09 -4.45046e-10 4.94506e-11 -2.22167 -0.733487 0.20892 -2.03217e-16 0.0 -3.88251e-19 -43.5205 -63.3796 -38.4396 -1.31693 63.9655 1.91783 -1.97824 -8.8645 -8.45141 2.03217e-16 0.0 3.88251e-19 18.8451 -42.2643 20.0996 1.38894 65.7104 -2.35289 5.43648 -23.9408 11.323
-83.6482 69.6149 -6.04908 -301.353 84.1309 -283.423 -3.13987 28.1864 -5.82972 5.05495 -6.511 -1.30873 -1.44273 -12.8676 3.72084 -7.87079 -4.92974 7.97595 -0.0 0.0 0.0 -0.0 0.0 0.0 -1.67629e-13 2.1695e-12 -1.04212e-13 71.8977 29.6735 3.74587 -20.0581 -13.0825 38.8299 -0.247892 -14.0386 -2.01385 7.16317e-10 -2.21431e-09 8.04189e-10 1.21552e-09 -3.83282e-09 1.39496e-09 7.16321e-10 -2.21431e-09 8.04181e-10 7.73091 5.47488 0.417314 7.16316e-10 -2.21431e-09 8.04195e-10 2.90554 0.965183 0.102902 7.16327e-10 -2.21431e-09 8.04188e-10 10.2786 0.731801 0.0259123 7.1631e-10 -2.2143e-09 8.04193e-10 2.22167 -0.733487 -0.20892 -1.67657e-13 2.16951e-12 -1.04473e-13 -53.4693 34.3728 -27.259 21.9253 -15.6734 -43.4738 0.198351 -12.5822 1.79761 2.32833e-09 -2.38495e-10 -1.63602e-09 4.04586e-09 -4.14977e-10 -2.81222e-09 2.32833e-09 -2.38492e-10 -1.63601e-09 -7.73091 5.47488 -0.417314 2.32833e-09 -2.38492e-10 -1.63602e-09 -2.90554 0.965183 -0.102902 2.32833e-09 -2.38493e-10 -1.63602e-09 -10.2786 0.731801 -0.0259123 2.32834e-09 -2.38493e-10 -1.63603e-09 -2.22167 -0.733487 0.20892 -2.03217e-16 0.0 -3.88251e-19 -41.8211 -63.2993 -36.5423 -1.36851 64.6162 1.99034 -2.21853 -9.70798 -8.918 2.03217e-16 0.0 3.88251e-19 19.4786 -42.0312 20.3219 1.51289 66.935 -2.46955 4.88551 -22.028 10.8314
